<svg style="width: 100%; height: 100%;" version="1.1" viewBox="0 0 424.14313 393.28862" height="393.2886" width="424.14313" data-name="Layer 1" id="b7b32b39-b294-42d6-81e0-024e7ed9ae70">
	<title>
		Delete draft
	</title>
	<path style="stroke-width:0.714763" fill="#e6e6e6" d="M 107.45174,390.48705 H 17.905866 c 0,0 -1.81512,-33.53055 8.92402,-33.91157 10.73913,-0.38103 9.52906,14.86012 22.99151,-6.09647 13.46245,-20.95658 29.79788,-19.8135 31.91552,-7.42966 2.11764,12.38384 -4.0837,22.28979 7.26048,19.24156 11.344174,-3.04823 27.680884,4.95335 18.454344,28.19614 z" data-name="Path 1" id="a935b196-91fc-4d65-bd04-49275a33d175" />
	<path style="stroke-width:0.714763" fill="#ffffff" d="m 56.430317,389.12815 -0.30252,-0.0153 c 0.70504,-22.07561 4.3754,-36.2579 7.33118,-44.27154 3.20862,-8.69869 6.30069,-12.2202 6.33189,-12.25469 l 0.20126,0.28477 c -0.0306,0.0345 -3.08634,3.5207 -6.26949,12.16084 -2.93922,7.9767 -6.58983,22.10288 -7.29232,44.09587 z" data-name="Path 2" id="af9a6d89-7824-4af5-a475-6980c18ad0f3" />
	<path style="stroke-width:0.714763" fill="#ffffff" d="m 88.838787,389.17307 -0.29042,-0.10669 A 46.926876,59.105199 0 0 1 100.3632,364.30913 l 0.20317,0.28236 a 46.609071,58.704919 0 0 0 -11.727583,24.58158 z" data-name="Path 3" id="ae138407-70d7-43ff-b006-9d3240c337f6" />
	<path style="stroke-width:0.714763" fill="#ffffff" d="m 27.273127,389.1466 -0.29997,-0.0521 a 32.947314,41.497703 0 0 0 -2.96342,-24.25589 26.515443,33.396652 0 0 0 -4.67473,-8.59606 l 0.20954,-0.27515 a 26.847985,33.815495 0 0 1 4.73905,8.7019 33.24912,41.877833 0 0 1 2.98953,24.47734 z" data-name="Path 4" id="a7d931fe-d47e-4aa5-ae01-a0d26a3448cc" />
	<path style="stroke-width:0.714763" fill="#2f2e41" d="M 119.60412,390.99641 H 8.2481658 l -0.0255,-0.47489 c -0.0637,-1.18159 -1.48458,-29.06087 5.6873702,-39.00853 a 7.8552745,9.893852 0 0 1 5.74024,-3.46937 c 4.67472,-0.16765 7.61267,2.03831 9.98251,3.80788 4.46647,3.33701 7.41652,5.54217 18.14483,-11.15813 11.62122,-18.09125 24.16082,-21.98416 31.36907,-19.81991 4.65753,1.39897 7.86743,5.35124 8.80683,10.84528 0.89164,5.20205 0.60632,10.08964 0.37831,14.01785 -0.24392,4.20255 -0.43626,7.52111 0.93431,9.02597 1.14639,1.25539 3.427073,1.3693 7.184693,0.35938 7.642601,-2.05355 18.309131,-0.29681 23.662141,8.41552 2.87999,4.68706 5.14921,13.20606 -0.39678,27.17739 z M 9.0079658,389.97685 H 119.1029 c 4.13274,-10.56051 4.26202,-19.4822 0.37003,-25.81531 -4.91102,-7.99198 -15.21389,-10.09526 -22.853311,-8.04251 -4.08306,1.09736 -6.515323,0.91607 -7.885263,-0.58719 -1.67564,-1.83856 -1.46993,-5.38253 -1.21008,-9.86664 0.22419,-3.86243 0.5025,-8.66981 -0.36238,-13.72907 -0.87126,-5.09456 -3.86143,-8.76447 -8.2037,-10.06799 -6.97834,-2.09686 -19.17021,1.74632 -30.55196,19.46857 -11.16712,17.38454 -14.53178,14.87216 -19.18676,11.39076 -2.39914,-1.79204 -5.12246,-3.82393 -9.54689,-3.6659 a 7.0750472,8.9111424 0 0 0 -5.16386,3.13567 c -6.4439902,8.94094 -5.6580702,34.01023 -5.5001302,37.77961 z" data-name="Path 5" id="b274f1e0-b558-44b1-a0b2-dcd77bbddb14" />
	<path fill="#3f3d56" d="m 301.17132,391.41429 h -172.216 l -0.033,-0.965 -8.223,-235.18 h 188.727 z m -170.284,-2 h 168.352 l 8.117,-232.145 h -184.587 z" data-name="Path 8" id="bca7d782-7e31-494e-97b0-f49b8df7894d" />
	<g transform="translate(-482.88866,-121.17796)" data-name="Group 1" id="e7d5632f-8461-4dcf-9cd9-df8e3f64d5e2">
		<rect fill="#3f3d56" height="162.097" width="13.099" y="321.89658" x="639.82599" data-name="Rectangle 17" id="ad932c98-7027-4b28-8e73-a76d8a4136e0" />
		<rect fill="#3f3d56" height="162.097" width="13.099" y="321.89658" x="691.40204" data-name="Rectangle 18" id="ae1e5d8b-7977-4a56-a24c-fbb057f76b38" />
		<rect fill="#3f3d56" height="162.097" width="13.099" y="321.89658" x="742.97803" data-name="Rectangle 19" id="bffa0855-fc38-45cc-9e39-6daa1d3e4103" />
	</g>
	<path id="path12" fill="#3f3d56" d="m 405.58845,219.18955 -0.8457,-0.53418 -213.91406,-135.183097 18.55566,-29.36182 0.84571,0.53418 213.91308,135.182617 z m -212,-136.339347 211.377,133.579587 16.418,-25.97949 -211.376,-133.581057 z" />
	<path fill="#3f3d56" d="m 353.94097,72.577003 a 38.459,38.459 0 0 0 -58.62,38.069997 l 10.2,6.446 a 30.344,30.344 0 1 1 28.98,18.321 l 10.2,6.446 a 38.459,38.459 0 0 0 9.249,-69.282997 z" data-name="Path 10" id="b31113e7-cae2-4653-b248-af5e4acb0a6c" />
	<rect style="stroke-width:0.683701" x="0" fill="#3f3d56" height="2" width="424.90924" y="389.79681" data-name="Rectangle 21" id="bbfb7505-c422-4cd7-b125-b9dee40ff3b1" />
	<g transform="translate(-459.53569,-161.05289)" data-name="Group 4" id="ff061cc6-72bd-494d-9c36-32e4a4020cd7">
		<path class="icon-primary-color-fill" transform="translate(-139.84793,-192.45672)" d="m 705.57123,513.00138 -84.00157,-58.87289 a 3.60743,3.60743 0 0 1 -0.882,-5.01481 L 686.619,355.0409 a 3.60743,3.60743 0 0 1 5.01481,-0.882 l 84.00156,58.87289 a 3.60742,3.60742 0 0 1 0.882,5.01481 l -65.92963,94.07033 a 3.60742,3.60742 0 0 1 -5.01651,0.88445 z" data-name="Path 81" id="bc404282-8d4f-43f7-bc12-02f97785eba1" />
		<path fill="#ffffff" transform="translate(-139.84793,-192.45672)" d="m 724.46214,449.12032 -49.29069,-34.54561 a 5.3006309,5.3006309 0 1 1 6.08441,-8.6814 l 49.29069,34.54561 a 5.3006309,5.3006309 0 0 1 -6.08441,8.6814 z" data-name="Path 82" id="ae4af9f3-88ec-4cab-9b9e-a4fc234f7062" />
		<path fill="#ffffff" transform="translate(-139.84793,-192.45672)" d="m 713.14975,465.26118 -49.29069,-34.54561 a 5.30063,5.30063 0 1 1 6.0844,-8.6814 l 49.29069,34.54561 a 5.30063,5.30063 0 0 1 -6.0844,8.6814 z" data-name="Path 83" id="fe48f3fd-992f-41c2-af3b-c30882e26a16" />
		<path fill="#ffffff" transform="translate(-139.84793,-192.45672)" d="M 701.71568,481.57565 652.425,447.03 a 5.3006321,5.3006321 0 1 1 6.0844,-8.68141 l 49.29069,34.54561 a 5.3006321,5.3006321 0 0 1 -6.0844,8.68141 z" data-name="Path 84" id="e216638f-22ba-49ea-a46c-300c78c4e875" />
		<path fill="#ffffff" transform="translate(-139.84793,-192.45672)" d="m 724.32359,417.19028 -19.09171,-13.38052 a 5.30063,5.30063 0 1 1 6.0844,-8.6814 l 19.09172,13.38051 a 5.300635,5.300635 0 0 1 -6.08441,8.68141 z" data-name="Path 85" id="ee43e3d8-5f22-4b53-a964-043fec166479" />
	</g>
</svg>
